# xmcd
#
# Track frame offsets:
#  150
#  16690
#  32415
#  50790
#  64855
#  81415
#  99775
#  136050
#  155175
#  176480
#  193625
#  216625
#  244480
#
# Disc length: 3527 seconds
#
# Revision: 2
# Processed by: cddbd v1.5.1PL2 Copyright (c) Steve Scherf et al.
# Submitted via: Collectorz.com_Music_Collector 6.9
#
DISCID=b50dc50d
DTITLE=NorthSound - The Blues Naturally
DYEAR=1994
DGENRE=
TTITLE0=Alone In the Night
TTITLE1=Like I Need You
TTITLE2=The Blues
TTITLE3=Pussycat Blues
TTITLE4=Bobo's Blues
TTITLE5=Midnight Hours
TTITLE6=After Hours
TTITLE7=Northern Reflections
TTITLE8=Lonely Nights
TTITLE9=Marsha's Blues
TTITLE10=Bella's Blues
TTITLE11=Thunder Blues
TTITLE12=Common Loon Boogie
EXTD=
EXTT0=
EXTT1=
EXTT2=
EXTT3=
EXTT4=
EXTT5=
EXTT6=
EXTT7=
EXTT8=
EXTT9=
EXTT10=
EXTT11=
EXTT12=
PLAYORDER=
